# xmcd
#
# Track frame offsets:
#	150
#	16637
#	32841
#	48161
#	63710
#	83406
#	103168
#	119929
#	140963
#	154561
#	173803
#	189091
#	213508
#
# Disc length: 3058 seconds
# Revision: 3
# Processed by: cddbd v1.5.2PL0 Copyright (c) Steve Scherf et al.
# Submitted via: dBpowerAMP V12.0
#
DISCID=af0bf00d
DTITLE=The Infamous Stringdusters - The Infamous Stringdusters
DYEAR=2008
DGENRE=Bluegrass
TTITLE0=Won't Be Coming Back
TTITLE1=Well, Well
TTITLE2=When Silence Is the Only Sound
TTITLE3=Bound for Tennessee
TTITLE4=Glass Elevator
TTITLE5=Three Days in July
TTITLE6=The Way I See You Now
TTITLE7=Golden Ticket
TTITLE8=I Wonder
TTITLE9=Get It While You Can
TTITLE10=You Can't Handle the Truth
TTITLE11=Lovin' You
TTITLE12=Black Rock
EXTD=
EXTT0=
EXTT1=
EXTT2=
EXTT3=
EXTT4=
EXTT5=
EXTT6=
EXTT7=
EXTT8=
EXTT9=
EXTT10=
EXTT11=
EXTT12=
PLAYORDER=
